<svg width="24" height="23" viewBox="0 0 24 23" fill="none" xmlns="http://www.w3.org/2000/svg">
<path d="M22.7632 19.3452V11.3539C22.7632 10.1542 22.2841 9.00292 21.4127 8.17828C20.3913 7.21162 18.9742 5.90754 17.8301 4.9942C15.666 3.26652 14.5859 1.85492 12 1.85492C9.41412 1.85492 8.33403 3.26652 6.16991 4.9942C5.02584 5.90754 3.60871 7.21162 2.58729 8.17828C1.71594 9.00292 1.23676 10.1542 1.23676 11.3539V19.3452C1.23676 20.8313 2.44147 21.6378 3.92757 21.6378H7.76385C8.31614 21.6378 8.76385 21.19 8.76385 20.6378V16.3006V15.3398C8.76385 13.5289 10.2318 12.0609 12.0427 12.0609C13.8536 12.0609 15.3216 13.5289 15.3216 15.3398V16.3006V20.6378C15.3216 21.19 15.7693 21.6378 16.3216 21.6378H20.0724C21.5585 21.6378 22.7632 20.8313 22.7632 19.3452Z" stroke="currentColor" stroke-width="2"/>
</svg>
