<svg width="39" height="40" viewBox="0 0 39 40" fill="none" xmlns="http://www.w3.org/2000/svg">
<g clip-path="url(#clip0_33_23820)">
<path d="M29.8594 0.5H9.14062C4.09239 0.5 0 4.59239 0 9.64062V30.3594C0 35.4076 4.09239 39.5 9.14062 39.5H29.8594C34.9076 39.5 39 35.4076 39 30.3594V9.64062C39 4.59239 34.9076 0.5 29.8594 0.5Z" fill="url(#paint0_radial_33_23820)"/>
<path d="M29.8594 0.5H9.14062C4.09239 0.5 0 4.59239 0 9.64062V30.3594C0 35.4076 4.09239 39.5 9.14062 39.5H29.8594C34.9076 39.5 39 35.4076 39 30.3594V9.64062C39 4.59239 34.9076 0.5 29.8594 0.5Z" fill="url(#paint1_radial_33_23820)"/>
<path d="M19.5014 4.76562C15.364 4.76562 14.8447 4.78375 13.2198 4.85764C11.5979 4.93198 10.4908 5.18868 9.52224 5.56543C8.52013 5.95452 7.6702 6.47507 6.82348 7.3221C5.97599 8.16898 5.45543 9.01891 5.06512 10.0206C4.68731 10.9895 4.43031 12.097 4.35734 13.7181C4.28467 15.3432 4.26562 15.8626 4.26562 20.0001C4.26562 24.1376 4.28391 24.6553 4.35764 26.2802C4.43229 27.9021 4.68899 29.0091 5.06543 29.9777C5.45482 30.9799 5.97538 31.8298 6.82241 32.6765C7.66898 33.524 8.51891 34.0458 9.52026 34.4349C10.4896 34.8116 11.5969 35.0683 13.2184 35.1427C14.8435 35.2165 15.3623 35.2347 19.4995 35.2347C23.6373 35.2347 24.155 35.2165 25.7799 35.1427C27.4018 35.0683 28.5101 34.8116 29.4794 34.4349C30.4811 34.0458 31.3298 33.524 32.1762 32.6765C33.0237 31.8298 33.5441 30.9799 33.9346 29.9782C34.309 29.0091 34.5662 27.9018 34.6423 26.2805C34.7153 24.6556 34.7344 24.1376 34.7344 20.0001C34.7344 15.8626 34.7153 15.3435 34.6423 13.7184C34.5662 12.0966 34.309 10.9896 33.9346 10.021C33.5441 9.01891 33.0237 8.16898 32.1762 7.3221C31.3289 6.47477 30.4814 5.95421 29.4785 5.56558C28.5073 5.18868 27.3996 4.93183 25.7778 4.85764C24.1527 4.78375 23.6354 4.76562 19.4966 4.76562H19.5014ZM18.1347 7.51101C18.5404 7.5104 18.993 7.51101 19.5014 7.51101C23.5691 7.51101 24.0511 7.52564 25.6574 7.59861C27.1428 7.66655 27.949 7.91472 28.486 8.12328C29.197 8.39933 29.7038 8.72946 30.2367 9.26281C30.7699 9.79601 31.0999 10.3038 31.3767 11.0148C31.5853 11.551 31.8337 12.3572 31.9014 13.8426C31.9743 15.4486 31.9902 15.9309 31.9902 19.9966C31.9902 24.0624 31.9743 24.5449 31.9014 26.1507C31.8334 27.6361 31.5853 28.4423 31.3767 28.9787C31.1007 29.6897 30.7699 30.1959 30.2367 30.7288C29.7035 31.262 29.1973 31.592 28.486 31.8682C27.9496 32.0777 27.1428 32.3252 25.6574 32.3932C24.0514 32.4661 23.5691 32.482 19.5014 32.482C15.4335 32.482 14.9513 32.4661 13.3455 32.3932C11.8601 32.3246 11.0539 32.0764 10.5164 31.8679C9.8056 31.5917 9.29769 31.2617 8.76449 30.7285C8.23128 30.1953 7.90131 29.6887 7.6245 28.9775C7.41594 28.4411 7.16747 27.6348 7.09983 26.1495C7.02685 24.5435 7.01223 24.0612 7.01223 19.9928C7.01223 15.9246 7.02685 15.4448 7.09983 13.8388C7.16777 12.3534 7.41594 11.5472 7.6245 11.0102C7.9007 10.2992 8.23128 9.79144 8.76464 9.25824C9.29784 8.72504 9.8056 8.39491 10.5166 8.11825C11.0536 7.90878 11.8601 7.66122 13.3455 7.59297C14.7508 7.52944 15.2955 7.5104 18.1347 7.5072V7.51101ZM27.6335 10.0405C26.6242 10.0405 25.8053 10.8586 25.8053 11.868C25.8053 12.8773 26.6242 13.6962 27.6335 13.6962C28.6427 13.6962 29.4616 12.8773 29.4616 11.868C29.4616 10.8588 28.6427 10.0399 27.6335 10.0399V10.0405ZM19.5014 12.1765C15.1809 12.1765 11.6779 15.6795 11.6779 20.0001C11.6779 24.3208 15.1809 27.8221 19.5014 27.8221C23.822 27.8221 27.3238 24.3208 27.3238 20.0001C27.3238 15.6797 23.8217 12.1765 19.5011 12.1765H19.5014ZM19.5014 14.9219C22.3059 14.9219 24.5796 17.1953 24.5796 20.0001C24.5796 22.8046 22.3059 25.0784 19.5014 25.0784C16.6967 25.0784 14.4233 22.8046 14.4233 20.0001C14.4233 17.1953 16.6967 14.9219 19.5014 14.9219Z" fill="white"/>
</g>
<defs>
<radialGradient id="paint0_radial_33_23820" cx="0" cy="0" r="1" gradientUnits="userSpaceOnUse" gradientTransform="translate(10.3594 42.5037) rotate(-90) scale(38.6519 35.9493)">
<stop stop-color="#FFDD55"/>
<stop offset="0.1" stop-color="#FFDD55"/>
<stop offset="0.5" stop-color="#FF543E"/>
<stop offset="1" stop-color="#C837AB"/>
</radialGradient>
<radialGradient id="paint1_radial_33_23820" cx="0" cy="0" r="1" gradientUnits="userSpaceOnUse" gradientTransform="translate(-6.53265 3.30937) rotate(78.681) scale(17.2776 71.2188)">
<stop stop-color="#3771C8"/>
<stop offset="0.128" stop-color="#3771C8"/>
<stop offset="1" stop-color="#6600FF" stop-opacity="0"/>
</radialGradient>
<clipPath id="clip0_33_23820">
<rect width="39" height="39" fill="white" transform="translate(0 0.5)"/>
</clipPath>
</defs>
</svg>
