<svg width="28" height="32" viewBox="0 0 28 32" fill="none" xmlns="http://www.w3.org/2000/svg">
<path d="M21.788 14.8315C21.6479 14.7654 21.5055 14.7019 21.3612 14.641C21.11 10.0898 18.5808 7.48429 14.3339 7.45762C14.3147 7.45751 14.2955 7.45751 14.2763 7.45751C11.7361 7.45751 9.62349 8.52361 8.32318 10.4636L10.6588 12.0389C11.6302 10.5898 13.1547 10.2809 14.2774 10.2809C14.2904 10.2809 14.3034 10.2809 14.3162 10.281C15.7146 10.2898 16.7698 10.6896 17.4527 11.4691C17.9497 12.0367 18.2821 12.821 18.4467 13.8108C17.2069 13.6036 15.8661 13.5399 14.4328 13.6207C10.395 13.8494 7.79925 16.1648 7.97359 19.3821C8.06205 21.0141 8.88895 22.4181 10.3018 23.3353C11.4964 24.1106 13.035 24.4898 14.634 24.404C16.7457 24.2901 18.4023 23.498 19.558 22.0495C20.4357 20.9495 20.9908 19.524 21.236 17.7278C22.2423 18.325 22.9882 19.1108 23.4001 20.0555C24.1005 21.6613 24.1413 24.3001 21.9514 26.4515C20.0328 28.3361 17.7265 29.1515 14.241 29.1766C10.3746 29.1485 7.45052 27.9293 5.54937 25.553C3.76909 23.3278 2.84904 20.1138 2.81471 16.0001C2.84904 11.8864 3.76909 8.67239 5.54937 6.44724C7.45052 4.07094 10.3745 2.85179 14.2409 2.82354C18.1353 2.85201 21.1103 4.07702 23.0843 6.46479C24.0522 7.63572 24.7819 9.10826 25.263 10.8252L28 10.1072C27.4169 7.99382 26.4993 6.17274 25.2507 4.66246C22.7202 1.60124 19.0191 0.0326467 14.2504 0.00012207H14.2314C9.47237 0.0325337 5.81278 1.60709 3.35427 4.68001C1.16654 7.41452 0.0380376 11.2194 0.000118655 15.9889L0 16.0001L0.000118655 16.0114C0.0380376 20.7808 1.16654 24.5858 3.35427 27.3203C5.81278 30.3931 9.47237 31.9678 14.2314 32.0001H14.2504C18.4815 31.9713 21.4638 30.8821 23.9206 28.4686C27.135 25.3111 27.0382 21.3533 25.9788 18.9236C25.2187 17.1813 23.7696 15.7662 21.788 14.8315ZM14.4828 21.5846C12.7132 21.6826 10.8747 20.9016 10.784 19.2288C10.7168 17.9885 11.6818 16.6045 14.5914 16.4396C14.9247 16.4207 15.2516 16.4115 15.5729 16.4115C16.6297 16.4115 17.6185 16.5124 18.5174 16.7056C18.1821 20.8226 16.2155 21.4911 14.4828 21.5846Z" fill="currentColor"/>
</svg>
